# xmcd
# 
# Track frame offsets:
#     150
#     13661
#     26300
#     40969
#     57002
#     67615
#     81700
#     95501
#     108455
#     122302
#     135459
#     149104
#     162519
#     176659
#     190347
#     203163
#     216150
#     230245
#     240846
#     251045
#     265924
#     279932
#     293442
#     306658
# 
# Disc length: 4211
# 
# Revision: 1
# Processed by: cddbd v1.5.2PL0 Copyright (c) Steve Scherf et al.
# Submitted via: fre:ac v1.0.17
# 
DISCID=5e107118
DTITLE=John Steinbeck - The Grapes of Wrath [CD14)
DYEAR=1939
DGENRE=Audiobook
TTITLE0=Chapter 23.04
TTITLE1=Chapter 23.05
TTITLE2=Chapter 24.01
TTITLE3=Chapter 24.02
TTITLE4=Chapter 24.03
TTITLE5=Chapter 24.04
TTITLE6=Chapter 24.05
TTITLE7=Chapter 24.06
TTITLE8=Chapter 24.07
TTITLE9=Chapter 24.08
TTITLE10=Chapter 24.09
TTITLE11=Chapter 24.10
TTITLE12=Chapter 24.11
TTITLE13=Chapter 24.12
TTITLE14=Chapter 24.13
TTITLE15=Chapter 25.01
TTITLE16=Chapter 25.02
TTITLE17=Chapter 25.03
TTITLE18=Chapter 25.04
TTITLE19=Chapter 26.01
TTITLE20=Chapter 26.02
TTITLE21=Chapter 26.03
TTITLE22=Chapter 26.04
TTITLE23=Chapter 26.05
EXTD=The Grapes of Wrath by John Steinbeck\nread by Dylan Baker recorded books 18 CDs\nnational folk country
EXTT0=
EXTT1=
EXTT2=
EXTT3=
EXTT4=
EXTT5=
EXTT6=
EXTT7=
EXTT8=
EXTT9=
EXTT10=
EXTT11=
EXTT12=
EXTT13=
EXTT14=
EXTT15=
EXTT16=
EXTT17=
EXTT18=
EXTT19=
EXTT20=
EXTT21=
EXTT22=
EXTT23=
PLAYORDER=
